<svg id="Capa_1" data-name="Capa 1" xmlns="http://www.w3.org/2000/svg" xmlns:xlink="http://www.w3.org/1999/xlink" viewBox="0 0 371.13 541.11"><defs><linearGradient id="Degradado_sin_nombre_24" x1="214.5" y1="388.34" x2="338.43" y2="388.34" gradientUnits="userSpaceOnUse"><stop offset="0" stop-color="#184a97"/><stop offset="1" stop-color="#41afe4"/></linearGradient><linearGradient id="Degradado_sin_nombre_24-2" x1="38.76" y1="388.34" x2="162.69" y2="388.34" xlink:href="#Degradado_sin_nombre_24"/><linearGradient id="Degradado_sin_nombre_2" x1="108.53" y1="174.03" x2="326.57" y2="174.03" xlink:href="#Degradado_sin_nombre_24"/><linearGradient id="Degradado_sin_nombre_2-2" x1="221.9" y1="309.52" x2="400.72" y2="309.52" xlink:href="#Degradado_sin_nombre_24"/><linearGradient id="Degradado_sin_nombre_2-3" x1="34.44" y1="310.96" x2="216.32" y2="310.96" xlink:href="#Degradado_sin_nombre_24"/><linearGradient id="Degradado_sin_nombre_26" x1="218.62" y1="519.36" x2="218.62" y2="446.17" xlink:href="#Degradado_sin_nombre_24"/></defs><title>logo web sunday</title><path d="M217.59,388.32h0v0h0A.06.06,0,0,1,217.59,388.32Z" transform="translate(-32.01 -14)" fill="url(#Degradado_sin_nombre_24)"/><path d="M217.59,388.32h0v0h0A.06.06,0,0,1,217.59,388.32Z" transform="translate(-32.01 -14)" fill="url(#Degradado_sin_nombre_24-2)"/><path d="M217.58,334.06A155.77,155.77,0,0,1,326,218.29q.54-7.68.55-15.49A217.9,217.9,0,0,0,217.55,14a217.92,217.92,0,0,0-109,188.8q0,7.8.55,15.48a153.69,153.69,0,0,1,66.63,39.46A152.82,152.82,0,0,1,217.58,334.06Z" transform="translate(-32.01 -14)" fill="url(#Degradado_sin_nombre_2)"/><path d="M397.65,221.64a138,138,0,0,0-67.3,2.42A155.8,155.8,0,0,0,221.9,339.83a136.3,136.3,0,0,1,0,57.51.09.09,0,0,1,0,.05c45,9.94,96.33-4.31,133.88-41.87S407.59,266.69,397.65,221.64Z" transform="translate(-32.01 -14)" fill="url(#Degradado_sin_nombre_2-2)"/><path d="M213.25,341.27A152.87,152.87,0,0,0,171.39,265a153.75,153.75,0,0,0-66.63-39.46,137.82,137.82,0,0,0-67.25-2.4c-9.95,45,4.31,96.32,41.86,133.87s88.84,51.81,133.88,41.87h0v0h0A136.35,136.35,0,0,0,213.25,341.27Z" transform="translate(-32.01 -14)" fill="url(#Degradado_sin_nombre_2-3)"/><text transform="translate(0 504.65)" font-size="112.29" fill="#1e1e1c" font-family="AristaProAlternate, Arista Pro Alternate">SUND<tspan x="252.64" y="0" letter-spacing="-0.09em">A</tspan><tspan x="304.73" y="0">Y</tspan></text><path d="M36,505.49a6,6,0,0,1-.66-2.63,4,4,0,0,1,.44-1.84,4.93,4.93,0,0,1,1.13-1.45,5.49,5.49,0,0,1,1.53-1,4.3,4.3,0,0,1,1.67-.36q2.2,0,4.5,2.91A16.33,16.33,0,0,0,51,507.35a19.48,19.48,0,0,0,9.46,2.25,18.7,18.7,0,0,0,5.29-.77,15.16,15.16,0,0,0,4.66-2.25,11.88,11.88,0,0,0,3.35-3.67,9.83,9.83,0,0,0,1.28-5,8,8,0,0,0-1.28-4.64,11.07,11.07,0,0,0-3.38-3.09,21.76,21.76,0,0,0-4.68-2.09c-1.74-.55-3.49-1.07-5.24-1.59a61.07,61.07,0,0,1-8.94-2.57,29.19,29.19,0,0,1-7.4-4,18.29,18.29,0,0,1-5-5.75,15.79,15.79,0,0,1-1.87-7.84,17.56,17.56,0,0,1,2-8.28,20.31,20.31,0,0,1,5.15-6.36,23.55,23.55,0,0,1,7.32-4.06,25.79,25.79,0,0,1,8.5-1.42,31,31,0,0,1,6.5.68,26.23,26.23,0,0,1,5.89,2,22.46,22.46,0,0,1,5,3.3,18.82,18.82,0,0,1,3.81,4.58,3.92,3.92,0,0,1,.49,1.86,4.32,4.32,0,0,1-1.29,3.13,4.37,4.37,0,0,1-3.26,1.31,5,5,0,0,1-3-1,28.35,28.35,0,0,0-3.1-2.79,15.41,15.41,0,0,0-6.71-3,23,23,0,0,0-4.22-.36,17.86,17.86,0,0,0-4.94.69,14.05,14.05,0,0,0-4.28,2,10.64,10.64,0,0,0-3,3.26,8.5,8.5,0,0,0-1.15,4.42,6.89,6.89,0,0,0,1.42,4.46,11.4,11.4,0,0,0,3.74,3,27.2,27.2,0,0,0,5.27,2q3,.8,6.09,1.51a76.72,76.72,0,0,1,7.86,2.71,27.93,27.93,0,0,1,6.83,3.92A18.48,18.48,0,0,1,83,489.48a16.33,16.33,0,0,1,1.81,7.95,19.81,19.81,0,0,1-2,8.8,21.61,21.61,0,0,1-5.32,7,24.34,24.34,0,0,1-7.83,4.55,27.82,27.82,0,0,1-9.56,1.62,28.92,28.92,0,0,1-7.93-1.08,28.59,28.59,0,0,1-7-2.95,25.33,25.33,0,0,1-5.54-4.4A20,20,0,0,1,36,505.49Z" transform="translate(-32.01 -14)" fill="url(#Degradado_sin_nombre_26)"/><path d="M92.93,451.26a4.85,4.85,0,0,1,4.93-4.93,4.92,4.92,0,0,1,3.59,1.42,4.76,4.76,0,0,1,1.46,3.51v40.25A23.19,23.19,0,0,0,104,499a15.79,15.79,0,0,0,3.21,5.62,14.07,14.07,0,0,0,5,3.54,17.7,17.7,0,0,0,13.24-.11,14.73,14.73,0,0,0,5.18-3.79,17.51,17.51,0,0,0,3.32-5.81,22.53,22.53,0,0,0,1.17-7.43V451.26a4.76,4.76,0,0,1,1.46-3.51,5.13,5.13,0,0,1,5.48-1,5.54,5.54,0,0,1,1.59,1,5,5,0,0,1,1.1,1.57,4.69,4.69,0,0,1,.41,1.94v39.92a33.13,33.13,0,0,1-1.81,11.05,26,26,0,0,1-5.24,8.9,24.09,24.09,0,0,1-8.36,6,27.62,27.62,0,0,1-11.24,2.17,25.86,25.86,0,0,1-10.85-2.17,23.78,23.78,0,0,1-8.06-5.86,25.12,25.12,0,0,1-5-8.61,31.48,31.48,0,0,1-1.7-10.44Z" transform="translate(-32.01 -14)" fill="url(#Degradado_sin_nombre_26)"/><path d="M156.14,473.39a31.82,31.82,0,0,1,1.7-10.41,25.3,25.3,0,0,1,5-8.62,24.09,24.09,0,0,1,8.06-5.89,25.74,25.74,0,0,1,10.91-2.2A27.86,27.86,0,0,1,193,448.44a23.82,23.82,0,0,1,8.36,6,26.54,26.54,0,0,1,5.2,8.93,32.82,32.82,0,0,1,1.81,11V514.1a4.62,4.62,0,0,1-1.45,3.48,5,5,0,0,1-3.59,1.4,5,5,0,0,1-1.89-.36,4.92,4.92,0,0,1-1.59-1A4.39,4.39,0,0,1,198.8,516a4.83,4.83,0,0,1-.38-1.94V474.51a22.57,22.57,0,0,0-1.18-7.43,17.17,17.17,0,0,0-3.35-5.81,14.85,14.85,0,0,0-5.18-3.78,16.19,16.19,0,0,0-6.69-1.35,16.63,16.63,0,0,0-6.55,1.24,13.82,13.82,0,0,0-5,3.56,16.17,16.17,0,0,0-3.2,5.65,23.18,23.18,0,0,0-1.13,7.48v40a4.62,4.62,0,0,1-1.45,3.48,4.93,4.93,0,0,1-3.54,1.4,4.84,4.84,0,0,1-1.94-.39,4.93,4.93,0,0,1-1.59-1,4.65,4.65,0,0,1-1.07-1.53,4.71,4.71,0,0,1-.39-1.92Z" transform="translate(-32.01 -14)" fill="url(#Degradado_sin_nombre_26)"/><path d="M221.55,451.43a4.86,4.86,0,0,1,1.43-3.57,4.77,4.77,0,0,1,3.51-1.42h19.79a35.2,35.2,0,0,1,9.54,1.29,36.48,36.48,0,0,1,8.61,3.62,31.08,31.08,0,0,1,7.29,5.89,45,45,0,0,1,5.65,7.57,35.9,35.9,0,0,1,3.64,8.58,35.4,35.4,0,0,1-3.64,27.55,37.48,37.48,0,0,1-5.65,7.23,34.68,34.68,0,0,1-7.29,5.6,37.7,37.7,0,0,1-8.61,3.59,35.2,35.2,0,0,1-9.54,1.29H226.49a4.88,4.88,0,0,1-4.94-4.94Zm9.87,5.1v52h15a24.77,24.77,0,0,0,10.3-2.11,25.87,25.87,0,0,0,13.48-13.79,24.81,24.81,0,0,0,1.92-9.65,25.46,25.46,0,0,0-1.92-9.73,29.92,29.92,0,0,0-5.36-8.55,23.9,23.9,0,0,0-8.12-6,24.33,24.33,0,0,0-10.24-2.14Z" transform="translate(-32.01 -14)" fill="url(#Degradado_sin_nombre_26)"/><path d="M332.14,509h-34l-2.64,6.8a5.12,5.12,0,0,1-1.83,2.27,4.57,4.57,0,0,1-2.66.85,5.15,5.15,0,0,1-2.08-.41,4.57,4.57,0,0,1-1.59-1.12,4.92,4.92,0,0,1-1-1.59A5.13,5.13,0,0,1,286,514a6.06,6.06,0,0,1,.33-1.92l24.07-62.51a5.9,5.9,0,0,1,1.64-2.22,4.33,4.33,0,0,1,3-1.07,5.48,5.48,0,0,1,3.05.85,4.52,4.52,0,0,1,1.78,2.12l24.23,62.83c.11.33.2.66.28,1a4.43,4.43,0,0,1-.28,2.8,4.77,4.77,0,0,1-1.07,1.56,5.1,5.1,0,0,1-1.62,1.1,5,5,0,0,1-2,.41,4.82,4.82,0,0,1-2.75-.85,4.68,4.68,0,0,1-1.8-2.27Zm-30.05-10h26.16l-13.05-34Z" transform="translate(-32.01 -14)" fill="url(#Degradado_sin_nombre_26)"/><path d="M365.2,487.89l-26-33.34a4.89,4.89,0,0,1-1.21-3.18,4.79,4.79,0,0,1,.36-1.78,5.07,5.07,0,0,1,1-1.62,5.49,5.49,0,0,1,1.54-1.15,4.36,4.36,0,0,1,2-.44,5.11,5.11,0,0,1,2,.41,4.41,4.41,0,0,1,1.67,1.29L370,478.29,393.49,448a4.81,4.81,0,0,1,3.62-1.64,4.3,4.3,0,0,1,1.81.41,4.94,4.94,0,0,1,1.53,1.1,5.62,5.62,0,0,1,1.07,1.56,4.12,4.12,0,0,1,.41,1.81,5.41,5.41,0,0,1-1.2,3.29L374.9,487.83v26.05a4.59,4.59,0,0,1-1.39,3.4,4.75,4.75,0,0,1-3.43,1.37,4.81,4.81,0,0,1-3.45-1.37,4.51,4.51,0,0,1-1.43-3.4Z" transform="translate(-32.01 -14)" fill="url(#Degradado_sin_nombre_26)"/></svg>